<svg width="295" height="97" viewBox="0 0 295 97" fill="none" xmlns="http://www.w3.org/2000/svg">
<rect width="96.5844" height="96.5844" rx="16" fill="#40BFFF"/>
<path fill-rule="evenodd" clip-rule="evenodd" d="M68.1838 44.498C70.2792 46.5934 70.2792 49.9909 68.1838 52.0864L52.0864 68.1837C49.9909 70.2792 46.5935 70.2792 44.498 68.1837L28.4006 52.0864C26.3051 49.9909 26.3051 46.5934 28.4006 44.498L44.498 28.4006C46.5935 26.3051 49.9909 26.3051 52.0864 28.4006L68.1838 44.498ZM48.2922 39.7832L39.7832 48.2922L48.2922 56.8012L56.8012 48.2922L48.2922 39.7832Z" fill="white"/>
<path d="M128.159 36.1913H112.679V61.4633H128.159V56.5313H118.835V50.9873H127.079V46.2353H118.835V41.1233H128.159V36.1913ZM131.796 51.3833H147.636V46.2713H131.796V51.3833ZM151.995 48.7913C151.995 56.3513 157.251 61.6433 164.703 61.6433C170.715 61.6433 175.251 58.2953 176.691 52.8233H169.923C168.879 54.9833 166.971 56.0633 164.631 56.0633C160.851 56.0633 158.259 53.2553 158.259 48.7913C158.259 44.3273 160.851 41.5193 164.631 41.5193C166.971 41.5193 168.879 42.5993 169.923 44.7593H176.691C175.251 39.2873 170.715 35.9033 164.703 35.9033C157.251 35.9033 151.995 41.2313 151.995 48.7913ZM200.117 51.4193C200.117 45.0473 195.581 41.0873 189.677 41.0873C183.809 41.0873 179.237 45.0473 179.237 51.4193C179.237 57.7913 183.701 61.7513 189.605 61.7513C195.509 61.7513 200.117 57.7913 200.117 51.4193ZM185.501 51.4193C185.501 47.9993 187.445 46.4153 189.677 46.4153C191.837 46.4153 193.853 47.9993 193.853 51.4193C193.853 54.8033 191.801 56.4233 189.605 56.4233C187.373 56.4233 185.501 54.8033 185.501 51.4193ZM231.066 61.4633H237.186V49.7273C237.186 44.3273 233.982 41.1593 229.014 41.1593C226.098 41.1593 223.578 42.7793 222.246 44.9033C220.878 42.4913 218.43 41.1593 215.406 41.1593C212.778 41.1593 210.726 42.2753 209.538 43.8953V41.3753H203.382V61.4633H209.538V50.5553C209.538 47.9273 211.05 46.4873 213.39 46.4873C215.73 46.4873 217.242 47.9273 217.242 50.5553V61.4633H223.362V50.5553C223.362 47.9273 224.874 46.4873 227.214 46.4873C229.554 46.4873 231.066 47.9273 231.066 50.5553V61.4633ZM269.176 61.4633H275.296V49.7273C275.296 44.3273 272.092 41.1593 267.124 41.1593C264.208 41.1593 261.688 42.7793 260.356 44.9033C258.988 42.4913 256.54 41.1593 253.516 41.1593C250.888 41.1593 248.836 42.2753 247.648 43.8953V41.3753H241.492V61.4633H247.648V50.5553C247.648 47.9273 249.16 46.4873 251.5 46.4873C253.84 46.4873 255.352 47.9273 255.352 50.5553V61.4633H261.472V50.5553C261.472 47.9273 262.984 46.4873 265.324 46.4873C267.664 46.4873 269.176 47.9273 269.176 50.5553V61.4633Z" fill="#22262A"/>
</svg>
